<svg id="_7853755_wireframe_kashifarif_mockup_layout_ui_icon" data-name="7853755_wireframe_kashifarif_mockup_layout_ui_icon" xmlns="http://www.w3.org/2000/svg" width="24" height="24" viewBox="0 0 24 24">
  <g id="Group_1022" data-name="Group 1022">
    <path id="Path_646" data-name="Path 646" d="M11.8,0V1.5H22a.472.472,0,0,1,.5.5V4.1a.472.472,0,0,1-.5.5H11.8a.472.472,0,0,1-.5-.5V2a.472.472,0,0,1,.5-.5V0m0,0a2.006,2.006,0,0,0-2,2V4.1a2.006,2.006,0,0,0,2,2H22a2.006,2.006,0,0,0,2-2V2a2.006,2.006,0,0,0-2-2Z" fill="#5561b3"/>
  </g>
  <g id="Group_1023" data-name="Group 1023">
    <path id="Path_647" data-name="Path 647" d="M2,1.5H5.6a.472.472,0,0,1,.5.5V13.5c0,.2-.1.3-.1.4-.1,0-.2.1-.4.1H2a.472.472,0,0,1-.5-.5V2c0-.2.1-.3.1-.4.1,0,.2-.1.4-.1H2M2,0A2.006,2.006,0,0,0,0,2V13.5a2.006,2.006,0,0,0,2,2H5.6a2.006,2.006,0,0,0,2-2V2a2.006,2.006,0,0,0-2-2Z" fill="#5561b3"/>
  </g>
  <g id="Group_1024" data-name="Group 1024">
    <path id="Path_648" data-name="Path 648" d="M11.8,8.4V9.9H22a.472.472,0,0,1,.5.5V22c0,.2-.1.3-.1.4-.1.1-.2.1-.4.1H11.8a.472.472,0,0,1-.5-.5V10.4a.472.472,0,0,1,.5-.5V8.4m0,0a2.006,2.006,0,0,0-2,2V22a2.006,2.006,0,0,0,2,2H22a2.006,2.006,0,0,0,2-2V10.4a2.006,2.006,0,0,0-2-2Z" fill="#5561b3"/>
  </g>
  <g id="Group_1025" data-name="Group 1025">
    <path id="Path_649" data-name="Path 649" d="M2,19.3H5.6a.472.472,0,0,1,.5.5V22a.472.472,0,0,1-.5.5H2a.472.472,0,0,1-.5-.5V19.8a.472.472,0,0,1,.5-.5m0-1.5a2.006,2.006,0,0,0-2,2V22a2.006,2.006,0,0,0,2,2H5.6a2.006,2.006,0,0,0,2-2V19.8a2.006,2.006,0,0,0-2-2Z" fill="#5561b3"/>
  </g>
</svg>
