<svg xmlns="http://www.w3.org/2000/svg" width="24" height="24" viewBox="0 0 24 24">
  <path id="_9034324_dashboard_icon" data-name="9034324_dashboard_icon" d="M4.323,1H4.23a4.861,4.861,0,0,0-1.107.077A2.769,2.769,0,0,0,1.077,3.123,4.861,4.861,0,0,0,1,4.23V8.847a4.861,4.861,0,0,0,.077,1.107A2.769,2.769,0,0,0,3.123,12a4.862,4.862,0,0,0,1.107.077H8.847A4.862,4.862,0,0,0,9.954,12,2.769,2.769,0,0,0,12,9.954a4.862,4.862,0,0,0,.077-1.107V4.23A4.862,4.862,0,0,0,12,3.123,2.769,2.769,0,0,0,9.954,1.077,4.861,4.861,0,0,0,8.847,1H4.323ZM3.554,2.872a4.344,4.344,0,0,1,.769-.026H8.754a4.344,4.344,0,0,1,.769.026.923.923,0,0,1,.682.682,4.348,4.348,0,0,1,.025.769V8.754a4.347,4.347,0,0,1-.025.769.923.923,0,0,1-.682.682,4.347,4.347,0,0,1-.769.025H4.323a4.348,4.348,0,0,1-.769-.025.923.923,0,0,1-.682-.682,4.344,4.344,0,0,1-.026-.769V4.323a4.344,4.344,0,0,1,.026-.769A.923.923,0,0,1,3.554,2.872ZM17.246,1h-.093a4.861,4.861,0,0,0-1.107.077A2.769,2.769,0,0,0,14,3.123a4.861,4.861,0,0,0-.077,1.107V8.847A4.861,4.861,0,0,0,14,9.954,2.769,2.769,0,0,0,16.046,12a4.862,4.862,0,0,0,1.107.077H21.77A4.863,4.863,0,0,0,22.877,12a2.77,2.77,0,0,0,2.046-2.046A4.863,4.863,0,0,0,25,8.847V4.23a4.863,4.863,0,0,0-.076-1.107,2.769,2.769,0,0,0-2.046-2.046A4.862,4.862,0,0,0,21.77,1H17.246Zm-.769,1.872a4.344,4.344,0,0,1,.769-.026h4.431a4.342,4.342,0,0,1,.769.026.923.923,0,0,1,.682.682,4.356,4.356,0,0,1,.025.769V8.754a4.355,4.355,0,0,1-.025.769.923.923,0,0,1-.682.682,4.346,4.346,0,0,1-.769.025H17.246a4.348,4.348,0,0,1-.769-.025.923.923,0,0,1-.682-.682,4.344,4.344,0,0,1-.026-.769V4.323a4.344,4.344,0,0,1,.026-.769A.923.923,0,0,1,16.477,2.872ZM4.23,13.923H8.847A4.861,4.861,0,0,1,9.954,14,2.769,2.769,0,0,1,12,16.046a4.862,4.862,0,0,1,.077,1.107V21.77A4.863,4.863,0,0,1,12,22.877a2.77,2.77,0,0,1-2.046,2.046A4.863,4.863,0,0,1,8.847,25H4.23a4.863,4.863,0,0,1-1.107-.076,2.769,2.769,0,0,1-2.046-2.046A4.862,4.862,0,0,1,1,21.77V17.153a4.861,4.861,0,0,1,.077-1.107A2.769,2.769,0,0,1,3.123,14,4.861,4.861,0,0,1,4.23,13.923Zm.093,1.846a4.344,4.344,0,0,0-.769.026.923.923,0,0,0-.682.682,4.344,4.344,0,0,0-.026.769v4.431a4.342,4.342,0,0,0,.026.769.923.923,0,0,0,.682.682,4.356,4.356,0,0,0,.769.025H8.754a4.355,4.355,0,0,0,.769-.025.923.923,0,0,0,.682-.682,4.346,4.346,0,0,0,.025-.769V17.246a4.348,4.348,0,0,0-.025-.769.923.923,0,0,0-.682-.682,4.344,4.344,0,0,0-.769-.026Zm12.923-1.846h-.093A4.861,4.861,0,0,0,16.046,14,2.769,2.769,0,0,0,14,16.046a4.861,4.861,0,0,0-.077,1.107V21.77A4.862,4.862,0,0,0,14,22.877a2.769,2.769,0,0,0,2.046,2.046A4.863,4.863,0,0,0,17.153,25H21.77a4.864,4.864,0,0,0,1.107-.076,2.77,2.77,0,0,0,2.046-2.046A4.864,4.864,0,0,0,25,21.77V17.153a4.863,4.863,0,0,0-.076-1.107A2.769,2.769,0,0,0,22.877,14a4.862,4.862,0,0,0-1.107-.077H17.246Zm-.769,1.872a4.344,4.344,0,0,1,.769-.026h4.431a4.342,4.342,0,0,1,.769.026.923.923,0,0,1,.682.682,4.356,4.356,0,0,1,.025.769v4.431a4.354,4.354,0,0,1-.025.769.923.923,0,0,1-.682.682,4.354,4.354,0,0,1-.769.025H17.246a4.356,4.356,0,0,1-.769-.025.923.923,0,0,1-.682-.682,4.342,4.342,0,0,1-.026-.769V17.246a4.344,4.344,0,0,1,.026-.769A.923.923,0,0,1,16.477,15.795Z" transform="translate(-1 -1)" fill="#6d7587" fill-rule="evenodd"/>
</svg>
