<svg xmlns="http://www.w3.org/2000/svg" width="22" height="22" viewBox="0 0 22 22">
  <g id="Group_1063" data-name="Group 1063" transform="translate(-1800 -295)">
    <path id="Path_48" data-name="Path 48" d="M1.845,25A.846.846,0,0,1,1,24.061l.651-5.923a.846.846,0,0,1,.245-.5L15.736,3.8a2.707,2.707,0,0,1,3.832,0L22.2,6.427a2.708,2.708,0,0,1,0,3.833L8.367,24.1a.846.846,0,0,1-.5.245l-5.922.652Zm5.922-1.506ZM3.309,18.612,2.8,23.2l4.585-.508L21.006,9.067a1.016,1.016,0,0,0,0-1.438l-2.639-2.64a1.015,1.015,0,0,0-1.438,0Z" transform="translate(1799.006 292)" fill="#6d7587"/>
    <rect id="Rectangle_27" data-name="Rectangle 27" width="9.274" height="1.685" transform="translate(1806.195 309.619) rotate(-45)" fill="#6d7587"/>
  </g>
</svg>
