<svg id="Icon-Trash" xmlns="http://www.w3.org/2000/svg" width="17.912" height="22" viewBox="0 0 17.912 22">
  <path id="Fill-6" d="M-207.5-205.1h1.384v11.073H-207.5Z" transform="translate(213.009 211.912)" fill="#6d7587"/>
  <path id="Fill-7" d="M-201.5-205.1h1.384v11.073H-201.5Z" transform="translate(209.764 211.912)" fill="#6d7587"/>
  <path id="Fill-8" d="M-195.5-205.1h1.384v11.073H-195.5Z" transform="translate(206.519 211.912)" fill="#6d7587"/>
  <path id="Fill-9" d="M-219.5-214.1h17.912v1.384H-219.5Z" transform="translate(219.5 216.822)" fill="#6d7587"/>
  <path id="Fill-10" d="M-200.571-216.586h-1.292v-1.384a.729.729,0,0,0-.738-.738h-2.768a.729.729,0,0,0-.738.738v1.384H-207.4v-1.384a2.048,2.048,0,0,1,2.03-2.03h2.768a2.048,2.048,0,0,1,2.03,2.03v1.384" transform="translate(212.942 220)" fill="#6d7587"/>
  <path id="Fill-11" d="M-204.8-193.968h-8.26a2.233,2.233,0,0,1-2.157-2.03l-1.285-16.61,1.377-.092,1.285,16.61a.833.833,0,0,0,.78.738h8.26a.8.8,0,0,0,.78-.738l1.285-16.61,1.377.092L-202.641-196a2.2,2.2,0,0,1-2.157,2.03" transform="translate(217.884 215.968)" fill="#6d7587"/>
</svg>
