<svg xmlns="http://www.w3.org/2000/svg" width="20.906" height="24" viewBox="0 0 20.906 24">
  <path id="iconfinder_Notification_4737445" d="M23.14,15.308l-.455-.366a1.045,1.045,0,0,1-.392-.815V9.9a7.84,7.84,0,0,0-6.319-7.688,1.568,1.568,0,0,0-3.037,0A7.84,7.84,0,0,0,6.613,9.9v4.223a1.045,1.045,0,0,1-.392.815l-.455.366A4.7,4.7,0,0,0,4,18.967v.868a2.091,2.091,0,0,0,2.091,2.091h4.317a4.181,4.181,0,0,0,8.086,0h4.322a2.091,2.091,0,0,0,2.091-2.091v-.857a4.7,4.7,0,0,0-1.767-3.669ZM14.453,22.97a2.091,2.091,0,0,1-1.8-1.045h3.6A2.091,2.091,0,0,1,14.453,22.97Zm8.363-3.136H6.091v-.857a2.613,2.613,0,0,1,.983-2.038l.455-.366A3.136,3.136,0,0,0,8.7,14.127V9.9a5.749,5.749,0,0,1,11.5,0v4.223a3.136,3.136,0,0,0,1.176,2.451l.455.366a2.613,2.613,0,0,1,.983,2.033Z" transform="translate(-4 -1.039)" fill="#6d7587"/>
</svg>
